<svg t="1680705552713" class="icon" viewBox="0 0 1536 1024" version="1.1" xmlns="http://www.w3.org/2000/svg" p-id="2857" width="128" height="128"><path d="M656.5952 0c-33.856 0.1792-66.8352 7.968-95.9424 27.648-62.3744 42.176-90.6624 127.0528-140.832 186.688-46.4384 55.2192-106.4512 80.896-166.272 111.3088-49.9008 25.3632-71.168 85.472-79.7504 144.4224-6.7712 46.5216-9.536 95.4112-30.048 136.384-23.552 47.0528-66.912 76.4096-97.44 117.9328-50.1632 68.2688-60.7808 170.912-25.9264 250.5664 7.4624 17.056 17.5232 33.8048 32.6208 42.0544 12.352 6.7392 26.56 6.9952 40.2752 6.9952h0.7488l1248.4608-0.1408c13.8048 0 28.3136-0.2048 40.3264-7.9552 19.5712-12.6016 26.1568-40.4032 38.6816-61.6448 24.8064-42.0608 73.9008-58.9184 98.6624-101.0048 11.0848-18.8352 15.8208-39.9424 15.84-61.728v-0.3712c-0.0576-34.6496-12.0192-70.9888-29.3888-102.5536a275.2128 275.2128 0 0 0-18.5088-29.1584c-39.5648-54.3552-91.8144-99.2-115.7696-164.3136-32-86.9696-5.9328-189.7024-33.1584-278.7584-19.168-62.7264-65.5488-113.856-121.2544-133.6704-48.8128-17.3632-99.9808-11.2384-151.4624-5.12-34.3424 4.0832-68.832 8.16-102.848 5.2672-69.344-5.888-133.9008-40.416-200.5184-63.136C729.696 8.32 693.9328 0.1792 659.0208 0h-2.4256z" fill="#F7F8F9" p-id="2858"></path><path d="M497.2032 206.9312h649.6704c9.1008 0 13.6512 4.5568 13.6512 13.6576v564.3328c0 9.1072-4.5504 13.6576-13.6512 13.6576H497.2032c-9.1008 0-13.6512-4.5504-13.6512-13.6576V220.5888c0-9.1008 4.544-13.6576 13.6512-13.6576z" fill="#F2F2F2" p-id="2859"></path><path d="M497.2032 206.9312h649.6704a13.6576 13.6576 0 0 1 13.6512 13.6576v32.512H483.552v-32.512a13.6576 13.6576 0 0 1 13.6512-13.6576z" fill="#C5CFD6" p-id="2860"></path><path d="M498.8992 230.8288a6.8288 6.8288 0 1 0 13.6512 0 6.8288 6.8288 0 0 0-13.6512 0zM519.4496 230.8288a6.8224 6.8224 0 1 0 13.6512 0 6.8224 6.8224 0 0 0-13.6512 0zM539.8528 230.8288a6.8224 6.8224 0 1 0 13.6448 0 6.8224 6.8224 0 0 0-13.6448 0z" fill="#F2F2F2" p-id="2861"></path><path d="M517.7792 280.9344h600.7424c4.5504 0 6.8288 2.2784 6.8288 6.8288v470.6496c0 4.5504-2.2784 6.8224-6.8288 6.8224H517.7792c-4.5568 0-6.8288-2.272-6.8288-6.8224V287.7632c0-4.5504 2.2784-6.8288 6.8288-6.8288z" fill="#FFFFFF" p-id="2862"></path><path d="M578.1696 592.2368l85.1712-50.6304c7.6288-4.5376 15.936-7.0016 24.3776-7.232a49.5168 49.5168 0 0 1 24.6016 5.9072l60.5184 32.0576c10.3232 5.4656 21.664 7.1936 32.7296 4.9856 11.072-2.208 21.4208-8.2624 29.8752-17.4784l73.9584-80.6336c11.1296-12.1344 25.4528-18.688 40.2112-18.4064 14.7584 0.288 28.9152 7.392 39.7376 19.9488L1088 595.168V710.4H543.2256l0.7744-50.4896c0-14.1696 3.2064-28.0512 9.2608-40.032 6.0416-11.9744 14.6816-21.5616 24.9088-27.6416z" fill="#DDE3E9" opacity=".5" p-id="2863"></path><path d="M556.8 371.2a38.4 38.4 0 1 0 76.8 0 38.4 38.4 0 0 0-76.8 0z" fill="#AFB9C5" opacity=".5" p-id="2864"></path><path d="M437.696 724.6208l62.3616 156.7168 41.824 132.4992h16.512l-63.936-289.216H437.696z" fill="#FECAC3" p-id="2865"></path><path d="M425.152 724.6208c-0.672 55.072-10.3616 129.216-11.904 132.6464-1.024 2.2976-36.64 31.3984-106.8224 87.3152l11.3792 12.0896c82.8032-47.9488 126.1248-75.1168 129.9584-81.5104 5.7472-9.5936 24.4672-97.8496 39.488-150.5408h-62.1056z" fill="#FECAC3" p-id="2866"></path><path d="M297.0112 942.0224c-1.7408 1.4656-4.032 3.8912-6.8864 7.2832l46.0608 54.8992c5.8816-2.5024 7.7184-5.4528 5.5168-8.8384-1.8432-2.8096-3.648-5.6512-5.4208-8.512l-8.8576-30.6496a5.6768 5.6768 0 0 0-7.168-3.8464l-1.024 0.32c-3.6992-1.7408-6.2976-3.5008-7.7888-5.28a11.6992 11.6992 0 0 1-1.5424-2.528 8.32 8.32 0 0 0-12.8896-2.848z m235.904 72.0192c0 2.2784 0.384 5.5936 1.1392 9.9584h71.6608c1.8688-6.1184 0.7936-9.4144-3.2256-9.9008a403.776 403.776 0 0 1-9.9968-1.3184l-29.1776-12.9152a5.7024 5.7024 0 0 0-7.552 3.0144l-0.4096 0.9792c-3.712 1.728-6.7328 2.5856-9.0496 2.5856-0.8384 0-1.8176-0.1472-2.9312-0.4416a8.256 8.256 0 0 0-7.2064 1.4464 8.32 8.32 0 0 0-3.2512 6.592z" fill="#E4E4E4" p-id="2867"></path><path d="M479.5328 1000.192l78.5216-8.4672-58.1952-267.104h-70.336l50.0096 275.5712z" fill="#5C648C" p-id="2868"></path><path d="M322.6496 925.0816l51.5072 60.5376c54.2528-58.8288 85.8816-97.2224 94.8928-115.168 8.9984-17.9456 17.088-66.5536 24.2752-145.8304H414.1568c-3.9232 69.7472-6.5728 106.24-7.936 109.4848-1.3632 3.2448-29.2224 33.568-83.5648 90.976z" fill="#7780AA" p-id="2869"></path><path d="M457.7024 555.008c14.336 0 19.5584-17.216 27.7056-26.656 5.824-6.7648 15.7824-4.7488 18.7264-14.208 7.3984-23.7952-12.416-40.544-38.272-40.544-25.8624 0-43.296 14.688-47.0592 36.768-3.7696 22.08 13.0368 44.64 38.8992 44.64z" fill="#191847" p-id="2870"></path><path d="M459.3408 539.6352c-5.7792-6.8032-9.696-15.1424-9.0432-24.4864 1.888-26.9248 39.2704-20.9984 46.5408-7.4112 7.2704 13.5872 6.4064 48.064-2.9888 50.496-3.7504 0.96-11.7312-1.408-19.8528-6.3232l5.0944 36.1792h-30.1184l10.368-48.448z" fill="#FECAC3" p-id="2871"></path><path d="M471.9936 522.3168a7.8272 7.8272 0 0 0-3.68-0.9088c-4.2688 0-7.7312 3.3792-7.7312 7.552 0 1.696 0.576 3.264 1.5488 4.5312-1.8304 3.0272-3.072 6.208-3.488 9.472-6.3488 0-29.504-24.064-6.432-46.72 23.072-22.6432 56.4032 9.6896 46.3872 11.5712-5.76 1.0816-17.3568 6.592-26.6048 14.5024z" fill="#191847" p-id="2872"></path><path d="M549.7984 579.7056l48.0128-14.5408c8.96-7.0336 17.408-12.1792 25.344-15.4304 2.304-0.4416 6.1312-0.1792 1.3568 5.2864-4.7808 5.4592-9.5552 11.4304-8.192 13.728 1.3632 2.2848 6.336 0.5632 7.7632 4.192 0.96 2.4128-7.2704 4.1536-24.6912 5.1968l-37.3312 22.1632-12.2624-20.5952z m-4.2432 85.3888l40.4096 29.92c10.9568 2.9824 20.1088 6.7008 27.4624 11.136 1.7408 1.5936 3.84 4.832-3.3664 4.2688-7.2-0.5568-14.8096-0.8128-15.7952 1.6576-0.9984 2.4832 3.36 5.4464 1.3504 8.7936-1.3376 2.2208-7.6672-3.3664-18.9824-16.7744l-40.0064-16.736 8.928-22.272v0.0064z" fill="#FECAC3" p-id="2873"></path><path d="M482.6752 584.4864c22.0032 41.3888 53.824 73.1072 99.9488 106.0864l-17.472 19.8656c-51.4944-19.3088-78.6816-30.9504-92.0256-70.0544-3.3536-9.8112-5.6896-41.088-7.6992-57.5488l17.248 1.6512z" fill="#B7CDE6" p-id="2874"></path><path d="M421.2288 722.368h97.536c-22.0992-67.9616-33.3888-114.6112-33.8624-139.9424-0.0256-1.2928-2.3936-3.5712-3.4368-3.264-7.648 2.176-15.8336 1.3632-24.5568-2.4512-23.1232 37.5104-31.1168 83.6928-35.6864 145.6576h0.0064z" fill="#F2F2F2" p-id="2875"></path><path d="M465.216 576.768c27.9552 0.2304 73.312 5.376 125.632-11.552l5.1648 26.0224c-39.5392 25.664-79.5712 45.5232-114.656 42.7008 15.232 65.9136 14.528 119.8656-19.0976 119.8656h-52.0064c-8.2624-55.9872 13.4464-133.6192 33.5744-172.7808 0.768-1.4912 2.4064-4.3136 6.2592-4.3136h15.104l0.0256 0.0576z" fill="#D1E2F5" p-id="2876"></path><path d="M1069.952 629.8624c4.6848-0.576 9.6704-0.3776 14.0288 1.5104 9.2608 3.9936 11.8912 15.1296 11.7632 24.1856-0.1408 9.7408-2.1696 20.384 5.1008 28.2368 3.3472 3.6032 7.5008 6.368 10.784 10.0416a47.3984 47.3984 0 0 1 8.2944 13.248c3.744 8.864 5.5744 19.2832 2.1568 28.5824-3.0144 8.192-10.592 15.5712-8.9536 24.8832 1.7088 9.7088 11.3216 17.1328 17.3312 24.3712 6.8032 8.1856 13.0624 18.6368 14.0864 29.376 0.992 10.2912-3.4112 20.6912-10.1504 28.4672-13.4848 15.5392-33.7408 23.1552-54.176 23.104-8.6784-0.0128-18.496-0.416-25.984-5.1648-2.3104-1.4656-3.5328-3.1168-4.9088-5.4016-1.2352-2.048-2.8608-3.3856-4.7424-4.8384-4.1472-3.1872-7.1424-7.488-9.0432-12.3008-7.4176-18.6944-1.4912-41.8176 8.8832-58.4128 2.464-3.9424 4.48-7.7248 3.2832-12.4032-1.2544-4.896-4.3136-9.312-7.0208-13.5168-2.6816-4.1536-5.7408-8.128-7.8336-12.6208-2.1888-4.704-2.8032-9.6384-2.4192-14.7904 0.7296-9.6768 4.832-18.6048 10.6368-26.3936 5.5936-7.5008 12.1664-14.6752 12.1792-24.4992 0.0128-10.4128-6.816-19.6736-3.9104-30.2656 1.2032-4.3776 3.6288-8.8704 7.5328-11.5072 3.744-2.5216 8.6784-3.3472 13.0816-3.8912z" fill="#DDE3E9" p-id="2877"></path><path d="M1066.7904 646.5152c0.0896-1.408 1.7152-2.24 3.0016-1.8816 1.6832 0.4864 1.6448 2.0928 1.6064 3.52-0.1344 4.4032 0.4928 8.672 1.5232 12.9408 2.1632 8.8768 6.144 17.0496 9.312 25.5744 3.1488 8.512 4.6336 17.3056 2.784 26.3168-1.7536 8.4992-4.4928 16.7744-6.2784 25.28-1.568 7.4944-3.2448 15.4048-0.8512 22.8864 2.304 7.1936 7.4112 13.056 11.0848 19.5648 7.6032 13.4656 10.9824 28.4032 11.424 43.7824 0.2112 7.136 0.0192 14.336-1.6064 21.344-0.9344 4.032-2.1888 9.4784-5.5872 12.2624-1.5616 1.2864-4.2368 1.728-5.5488-0.1728-1.2416-1.7856-0.1536-4.544 0.2368-6.4448 1.7024-8.224 2.0416-16.6336 1.632-24.9856-0.3904-8.0896-1.3312-16.1664-3.8272-23.8912-2.3232-7.1744-5.8496-13.6128-9.9968-19.8912-4.224-6.3936-8.6208-12.8-10.368-20.3712-1.7792-7.6864-0.3328-15.52 1.5936-23.0656 2.0416-7.9808 4.7104-15.7376 7.4752-23.4944 2.688-7.5712 3.6416-14.7328 2.1568-22.656-2.9376-15.6416-10.7904-30.3296-9.7664-46.624v0.0064z" fill="#C5CFD6" p-id="2878"></path><path d="M1195.4496 649.9584c5.9456 1.7792 11.8464 4.6528 16.0768 9.1584 9.0048 9.5808 6.2464 24.0704 1.2736 34.6432-5.344 11.392-13.4592 22.8352-8.8896 35.8976 2.1056 6.0096 5.632 11.4432 7.6288 17.4976a60.4864 60.4864 0 0 1 2.9312 19.9488c-0.2176 12.4032-3.5584 25.632-12.6208 34.7648-7.9872 8.0384-21.0368 12.736-24.0192 24.544-3.1168 12.32 4.4928 26.1184 7.8784 37.792 3.8272 13.2096 5.7856 28.8128 1.312 41.984-4.288 12.6208-15.1168 22.5408-27.3728 28.128-24.4864 11.168-52.928 9.4528-77.4784-1.3696-10.432-4.5952-22.0352-10.24-28.512-19.7696-2.0032-2.944-2.5984-5.5296-3.0336-8.9408-0.3904-3.0656-1.6384-5.4976-3.1296-8.192-3.296-5.9392-4.6016-12.5696-4.3328-19.2384 1.024-25.888 20.4672-49.9648 41.7856-64.0192 5.056-3.3344 9.4912-6.72 10.5472-12.864 1.1072-6.4064-0.2304-13.216-1.248-19.5904-1.0112-6.304-2.5856-12.5696-2.7072-18.9632-0.1344-6.6944 1.7472-12.8192 4.96-18.6752 6.0288-11.0016 15.7184-19.3408 26.848-25.44 10.7264-5.8688 22.4448-10.848 27.6928-22.3936 5.568-12.2368 2.272-26.7392 11.4112-37.6512 3.7824-4.5248 9.088-8.5312 15.1872-9.568 5.8432-0.9984 12.2304 0.6336 17.8112 2.3168z" fill="#DDE3E9" p-id="2879"></path><path d="M1183.3408 670.1888c0.8384-1.5936 3.2384-1.7216 4.5824-0.608 1.7664 1.4656 0.8896 3.3344 0.0768 4.9984-2.4832 5.1072-3.9936 10.4704-4.992 16.0512-2.0928 11.5968-1.6192 23.3344-2.3296 35.0528-0.7104 11.7056-3.5712 22.848-10.5408 32.48-6.5728 9.0816-14.2336 17.3696-20.8576 26.4448-5.8432 7.9936-12.0256 16.4096-13.0944 26.496-1.024 9.7024 1.9968 19.3152 2.9696 28.928 2.016 19.8976-1.8176 39.2832-9.3824 57.632-3.52 8.5184-7.5456 16.9024-13.1904 24.288-3.2384 4.2496-7.6288 10.0032-13.1648 11.4752-2.5536 0.6848-5.9968-0.2176-6.5728-3.1488-0.544-2.7648 2.2208-5.4336 3.6864-7.4688 6.3744-8.7808 11.2256-18.5024 15.1424-28.5568 3.7952-9.7408 6.9312-19.7504 8.0064-30.176 0.9984-9.6768 0.1664-19.136-1.504-28.7232-1.696-9.7792-3.584-19.6544-1.6896-29.504 1.9328-10.0032 7.7888-18.4576 14.08-26.3168 6.656-8.3264 13.952-16.032 21.3568-23.712 7.2256-7.488 12.1408-15.4112 14.5344-25.5296 4.736-19.9808 3.0592-41.4528 12.8832-60.1024z" fill="#C5CFD6" p-id="2880"></path><path d="M1012.192 725.0368c9.8496 0 18.5152 5.1392 24.48 12.4288 6.9888 8.5376 8.3968 18.9568 11.2384 29.1328 1.408 5.0624 3.84 10.0864 8.096 13.5168 3.8656 3.1296 8.7808 3.7568 13.4144 5.2864 9.2608 3.0528 16.736 10.4128 19.68 19.3856 3.6096 10.9504-0.2112 21.9904 0.448 33.0816 0.608 10.1888 10.816 16.5504 19.04 21.44 8.1024 4.8128 15.3984 9.3248 17.8368 18.7008 2.592 9.9584 3.4624 21.0688-0.128 30.8928-5.9712 16.3712-23.4368 23.584-40.3072 24.704-15.3216 1.0112-34.5792-0.5824-46.08-11.52-6.8864-6.5408-9.376-15.6992-9.0624-24.8 0.192-5.6576 1.3312-11.2768 2.8032-16.7424 1.0496-3.8784 2.4576-7.744 2.8608-11.7504 1.0688-10.6624-8.9472-12.7104-17.472-15.6352-10.8416-3.7184-18.4192-10.752-23.6992-20.5376-4.9088-9.12-6.976-19.3536-4.032-29.3888 1.504-5.12 4.2368-9.7728 7.9296-13.728 1.632-1.7408 3.9296-3.1936 5.4016-5.024 1.3632-1.7024 1.0688-3.9232 0.5952-5.9136-2.1824-9.248-8.9984-16.896-11.4304-26.1184-2.2016-8.3264-0.9024-18.688 6.8352-24.0576 3.3472-2.3232 7.4624-3.3216 11.5456-3.3536h0.0064z" fill="#C5CFD6" p-id="2881"></path><path d="M1025.504 749.1136c10.4384 10.9376 13.28 25.7856 14.112 40.1792 0.4672 8.0704-0.0192 16.576 2.3872 24.4032 2.0672 6.7008 6.8992 11.8208 11.8848 16.6592 10.0288 9.7408 21.216 19.6416 24.1472 33.7472 1.7216 8.2688 0.5568 16.8192 2.9376 25.0048 2.1632 7.4368 5.9712 14.7456 10.6048 21.024 3.7248 5.0624 8.5888 8.9344 12.6592 13.6448 1.248 1.44 3.0272 3.5584 2.5088 5.5936-0.5952 2.3808-3.68 3.1296-5.8624 2.752-5.0944-0.8704-9.3888-5.6512-12.7232-9.1328a78.8928 78.8928 0 0 1-12.3776-16.704c-3.7376-6.8288-6.7456-14.0544-8.032-21.7088-1.3312-7.936-0.672-16.2112-3.712-23.8272-5.1264-12.8128-17.5616-20.3776-26.5536-30.3744-11.1936-12.4416-9.5296-27.936-8.3776-43.2512 0.6272-8.416 1.248-17.92-3.072-25.6-1.6512-2.9312-5.3248-5.6704-6.0288-8.9984-0.6592-3.0528 2.8928-6.144 5.4912-3.4112h0.0064z" fill="#AFB9C5" p-id="2882"></path><path d="M1030.4064 928c0 62.9952 10.7008 96 67.1936 96 56.4992 0 67.2-33.0048 67.2-96h-134.4 0.0064z" fill="#89C5CC" p-id="2883"></path></svg>